<svg width="512" height="512" viewBox="0 0 512 512" fill="none" xmlns="http://www.w3.org/2000/svg">
<path d="M189.835 154.278C189.835 154.278 174.33 106.453 145.609 103.334C145.609 103.334 114.599 96.5766 96.7004 129.846L4.39795 346.095C4.39795 346.095 -11.2114 383.834 18.2379 404.523C18.2379 404.523 26.0433 410.553 41.9647 408.682C42.7971 409.098 66.9387 404.315 77.2408 375.413L117.721 271.447C117.721 271.447 124.173 252.837 139.054 253.98C139.054 253.98 151.332 256.06 157.68 272.903C158.096 274.046 195.871 371.878 195.871 371.878C195.871 371.878 209.606 416.375 249.254 407.85C249.254 407.85 287.965 396.622 269.234 342.56L189.835 154.278Z" fill="#06AFFF"/>
<path d="M145.271 103.333C145.271 103.333 171.331 103.541 189.395 154.205L268.61 342.328C268.61 342.328 289.063 392.059 246.705 408.359H343.569C343.569 408.359 388.005 399.118 370.044 338.694L286.987 141.85C286.987 141.85 272.037 104.371 245.355 103.437L145.271 103.333Z" fill="#00F4DB"/>
<path d="M42.8318 408.523C39.7172 409.043 38.1599 409.043 36.6025 409.043H138.347C167.417 411.637 178.837 366.13 186.105 346.231L155.477 267.846C146.653 251.753 131.08 246.045 119.14 267.846L88.513 346.231L83.3219 359.209L78.1309 372.705C78.1309 373.536 73.4589 385.164 69.3061 390.355C66.7106 393.989 62.5578 398.062 58.4049 401.256C51.6566 406.447 44.9082 408.004 42.8318 408.523Z" fill="#1C69FF"/>
<path d="M280.81 102.77C280.81 102.77 306.999 102.979 325.154 153.759L404.764 342.311C404.764 342.311 425.319 392.155 382.749 408.492H480.097C480.097 408.492 524.754 399.231 506.703 338.669L423.232 141.375C423.232 141.375 408.208 103.811 381.393 102.874L280.81 102.77Z" fill="#00F4DB"/>
</svg>
