<svg width="512" height="512" viewBox="0 0 512 512" fill="none" xmlns="http://www.w3.org/2000/svg">
<title>doc</title>
<path d="M202.24 74C166.11 56.75 115.61 48.3 48 48C41.6237 47.9134 35.3725 49.7727 30.08 53.33C25.7359 56.2663 22.1798 60.2251 19.7247 64.8581C17.2695 69.4912 15.9905 74.6566 16 79.9V366C16 385.34 29.76 399.93 48 399.93C119.07 399.93 190.36 406.57 233.06 446.93C233.644 447.485 234.378 447.855 235.171 447.996C235.964 448.137 236.781 448.042 237.521 447.722C238.26 447.403 238.889 446.873 239.33 446.199C239.771 445.524 240.004 444.735 240 443.93V106.82C240.002 104.546 239.515 102.297 238.573 100.227C237.631 98.1568 236.256 96.3129 234.54 94.82C224.759 86.4583 213.894 79.4551 202.24 74V74Z" fill="#999999"/>
<path d="M481.92 53.3C476.625 49.7515 470.373 47.9026 464 48V48C396.39 48.3 345.89 56.71 309.76 74C298.106 79.4452 287.239 86.4347 277.45 94.78C275.738 96.2755 274.366 98.1201 273.426 100.19C272.486 102.26 272 104.507 272 106.78V443.91C272 444.684 272.228 445.441 272.656 446.086C273.084 446.731 273.693 447.235 274.406 447.535C275.12 447.835 275.906 447.918 276.666 447.773C277.426 447.628 278.127 447.262 278.68 446.72C304.35 421.22 349.4 399.9 464.04 399.91C472.527 399.91 480.666 396.539 486.667 390.537C492.669 384.536 496.04 376.397 496.04 367.91V79.91C496.052 74.6563 494.77 69.4804 492.307 64.8396C489.844 60.1987 486.277 56.2355 481.92 53.3Z" fill="#999999"/>
</svg>
