<svg width="512" height="512" viewBox="0 0 512 512" fill="none" xmlns="http://www.w3.org/2000/svg">
<title>import</title>
<path d="M64 164V408C64 422.852 69.9 437.096 80.402 447.598C90.9041 458.1 105.148 464 120 464H392C406.852 464 421.096 458.1 431.598 447.598C442.1 437.096 448 422.852 448 408V164C448 162.939 447.579 161.922 446.828 161.172C446.078 160.421 445.061 160 444 160H68C66.9391 160 65.9217 160.421 65.1716 161.172C64.4214 161.922 64 162.939 64 164ZM331 315.63L267.31 379.31C264.31 382.308 260.242 383.993 256 383.993C251.758 383.993 247.69 382.308 244.69 379.31L181 315.63C174.91 309.54 174.35 299.63 180.15 293.25C181.606 291.646 183.372 290.355 185.342 289.454C187.312 288.553 189.445 288.061 191.61 288.009C193.776 287.957 195.929 288.344 197.94 289.149C199.951 289.954 201.778 291.158 203.31 292.69L240 329.37V224.45C240 215.84 246.62 208.45 255.23 208.02C257.393 207.916 259.555 208.252 261.585 209.008C263.615 209.764 265.47 210.924 267.038 212.418C268.606 213.912 269.854 215.709 270.707 217.7C271.56 219.691 272 221.834 272 224V329.37L308.69 292.69C310.222 291.158 312.049 289.954 314.06 289.149C316.071 288.344 318.224 287.957 320.39 288.009C322.555 288.061 324.688 288.553 326.658 289.454C328.628 290.355 330.394 291.646 331.85 293.25C337.65 299.62 337.09 309.54 331 315.63Z" fill="#999999"/>
<path d="M448 48H64C46.3269 48 32 62.3269 32 80V96C32 113.673 46.3269 128 64 128H448C465.673 128 480 113.673 480 96V80C480 62.3269 465.673 48 448 48Z" fill="#999999"/>
</svg>
