<svg width="416" height="416" viewBox="0 0 416 416" fill="none" xmlns="http://www.w3.org/2000/svg">
<title>refresh</title>
<path d="M208 0C93.31 0 0 93.32 0 208C0 322.86 93.14 416 208 416C322.69 416 416 322.69 416 208C416 93.13 322.87 0 208 0ZM208 313C183.07 313 159.16 303.096 141.532 285.468C123.904 267.84 114 243.93 114 219C114 194.07 123.904 170.16 141.532 152.532C159.16 134.904 183.07 125 208 125H212.21L198.1 110.9C195.474 108.274 193.999 104.713 193.999 101C193.999 97.2868 195.474 93.7256 198.1 91.1C200.726 88.4744 204.287 86.9993 208 86.9993C211.713 86.9993 215.274 88.4744 217.9 91.1L257.9 131.1C259.2 132.4 260.232 133.943 260.935 135.642C261.639 137.341 262.001 139.161 262.001 141C262.001 142.839 261.639 144.659 260.935 146.358C260.232 148.057 259.2 149.6 257.9 150.9L217.9 190.9C215.274 193.526 211.713 195.001 208 195.001C204.287 195.001 200.726 193.526 198.1 190.9C195.474 188.274 193.999 184.713 193.999 181C193.999 177.287 195.474 173.726 198.1 171.1L216.1 153.1C213.72 153 211 153 208 153C194.946 153 182.186 156.871 171.332 164.123C160.479 171.375 152.019 181.683 147.024 193.743C142.029 205.803 140.722 219.073 143.268 231.876C145.815 244.679 152.101 256.439 161.331 265.669C170.561 274.899 182.321 281.185 195.124 283.732C207.927 286.278 221.197 284.971 233.257 279.976C245.317 274.981 255.625 266.521 262.877 255.668C270.129 244.814 274 232.054 274 219C274 215.287 275.475 211.726 278.1 209.1C280.726 206.475 284.287 205 288 205C291.713 205 295.274 206.475 297.9 209.1C300.525 211.726 302 215.287 302 219C301.971 243.921 292.058 267.814 274.436 285.436C256.814 303.058 232.921 312.971 208 313Z" fill="#999999"/>
</svg>
