<svg width="512" height="512" viewBox="0 0 512 512" fill="none" xmlns="http://www.w3.org/2000/svg">
<title>save</title>
<path d="M465.94 119.76L392.24 46.06C387.794 41.5885 382.504 38.0434 376.678 35.63C370.853 33.2166 364.606 31.9828 358.3 32H96C79.0261 32 62.7475 38.7428 50.7452 50.7452C38.7428 62.7475 32 79.0261 32 96V416C32 432.974 38.7428 449.252 50.7452 461.255C62.7475 473.257 79.0261 480 96 480H416C432.974 480 449.252 473.257 461.255 461.255C473.257 449.252 480 432.974 480 416V153.7C480.017 147.394 478.783 141.147 476.37 135.321C473.957 129.496 470.412 124.206 465.94 119.76V119.76ZM120 112H296C298.122 112 300.157 112.843 301.657 114.343C303.157 115.843 304 117.878 304 120V168C304 170.122 303.157 172.157 301.657 173.657C300.157 175.157 298.122 176 296 176H120C117.878 176 115.843 175.157 114.343 173.657C112.843 172.157 112 170.122 112 168V120C112 117.878 112.843 115.843 114.343 114.343C115.843 112.843 117.878 112 120 112V112ZM259.75 431.91C243.625 432.667 227.649 428.528 213.92 420.038C200.191 411.548 189.352 399.102 182.826 384.338C176.301 369.573 174.394 353.18 177.358 337.312C180.321 321.444 188.015 306.844 199.429 295.429C210.844 284.015 225.444 276.321 241.312 273.358C257.18 270.394 273.573 272.301 288.338 278.826C303.102 285.352 315.548 296.191 324.038 309.92C332.528 323.649 336.667 339.625 335.91 355.75C334.962 375.643 326.634 394.469 312.552 408.552C298.469 422.634 279.643 430.962 259.75 431.91V431.91Z" fill="#999999"/>
<path d="M256 400C282.51 400 304 378.51 304 352C304 325.49 282.51 304 256 304C229.49 304 208 325.49 208 352C208 378.51 229.49 400 256 400Z" fill="#999999"/>
</svg>
